<?xml version="1.0" encoding="UTF-8"?>
<svg width="130px" height="130px" viewBox="0 0 130 130" version="1.1" xmlns="http://www.w3.org/2000/svg" xmlns:xlink="http://www.w3.org/1999/xlink">
    <title>air-conditioner</title>
    <g id="air-conditioner" stroke="none" stroke-width="1" fill="none" fill-rule="evenodd">
        <rect id="Rectangle" x="0" y="0" width="130" height="130"></rect>
        <g id="AirConditioner" transform="translate(12.000000, 5.000000)">
            <polygon id="path181-35" stroke="#231F20" stroke-width="3.18" stroke-linecap="round" stroke-linejoin="round" points="53.1898208 120 0.000299080516 90.1662817 0.000299080516 31.2093192 53.1898208 61.0430498"></polygon>
            <polygon id="path185-9" stroke="#231F20" stroke-width="3.18" stroke-linecap="round" stroke-linejoin="round" points="53.4771429 120 106.666667 90.1662817 106.666667 31.2093192 53.4771429 61.0430498"></polygon>
            <polygon id="path189-01" stroke="#231F20" stroke-width="3.18" stroke-linecap="round" stroke-linejoin="round" points="53.4771429 61.0428242 0 30.5210501 53.4771429 0 106.666667 30.5210501"></polygon>
            <path d="M78.4477235,30.1647139 C78.4477235,38.1160324 67.1763416,44.5624666 53.2715558,44.5624666 C39.367487,44.5624666 28.0953881,38.1160324 28.0953881,30.1647139 C28.0953881,22.2133953 39.367487,15.7669673 53.2715558,15.7669673 C67.1763416,15.7669673 78.4477235,22.2133953 78.4477235,30.1647139 Z" id="path193-3" stroke="#231F20" stroke-width="3.18" stroke-linecap="round" stroke-linejoin="round"></path>
            <path d="M58.0797872,30.1647139 C58.0797872,31.6833514 55.9269811,32.9140331 53.271904,32.9140331 C50.61611,32.9140331 48.4633039,31.6833514 48.4633039,30.1647139 C48.4633039,28.6460763 50.61611,27.4153946 53.271904,27.4153946 C55.9269811,27.4153946 58.0797872,28.6460763 58.0797872,30.1647139" id="path197-6" fill="#231F20" fill-rule="nonzero"></path>
            <path d="M11.9227997,45.6697776 C11.5043779,46.3947226 9.934029,46.2702957 8.41354257,45.3919449 C6.89377927,44.5136146 6.00056711,43.2134799 6.418991,42.4885349 C6.83668972,41.7635693 8.40776172,41.8880167 9.92752502,42.766347 C11.4480094,43.6446979 12.3412215,44.9448326 11.9227997,45.6697776" id="path201-9" fill="#231F20" fill-rule="nonzero"></path>
            <path d="M11.9227997,57.9000559 C11.5043779,58.6250009 9.934029,58.5005741 8.41354257,57.6222233 C6.89377927,56.7438929 6.00056711,55.4437582 6.418991,54.7188132 C6.83668972,53.9938477 8.40776172,54.1182951 9.92752502,54.9966254 C11.4480094,55.8749762 12.3412215,57.1751109 11.9227997,57.9000559" id="path205-0" fill="#231F20" fill-rule="nonzero"></path>
            <path d="M11.9227997,70.1303343 C11.5043779,70.8552793 9.934029,70.7308524 8.41354257,69.8525016 C6.89377927,68.9741713 6.00056711,67.6740365 6.418991,66.9490915 C6.83668972,66.224126 8.40776172,66.3485734 9.92752502,67.2269037 C11.4480094,68.1052545 12.3412215,69.4053893 11.9227997,70.1303343" id="path209-4" fill="#231F20" fill-rule="nonzero"></path>
            <path d="M11.9227997,82.36051 C11.5043779,83.0854551 9.934029,82.9610282 8.41354257,82.0826774 C6.89377927,81.2043471 6.00056711,79.9042123 6.418991,79.1792673 C6.83668972,78.4543018 8.40776172,78.5787492 9.92752502,79.4570795 C11.4480094,80.3354303 12.3412215,81.635565 11.9227997,82.36051" id="path213-0" fill="#231F20" fill-rule="nonzero"></path>
            <path d="M11.9227997,51.784927 C11.5043779,52.509872 9.934029,52.3854452 8.41354257,51.5070943 C6.89377927,50.628764 6.00056711,49.3286293 6.418991,48.6036843 C6.83668972,47.8787188 8.40776172,48.0031661 9.92752502,48.8814965 C11.4480094,49.7598473 12.3412215,51.059982 11.9227997,51.784927" id="path217-2" fill="#231F20" fill-rule="nonzero"></path>
            <path d="M11.9227997,64.0151849 C11.5043779,64.7401299 9.934029,64.615703 8.41354257,63.7373522 C6.89377927,62.8590219 6.00056711,61.5588871 6.418991,60.8339421 C6.83668972,60.1089766 8.40776172,60.233424 9.92752502,61.1117543 C11.4480094,61.9901051 12.3412215,63.2902398 11.9227997,64.0151849" id="path221-4" fill="#231F20" fill-rule="nonzero"></path>
            <path d="M11.9227997,76.2454632 C11.5043779,76.9704082 9.934029,76.8459813 8.41354257,75.9676305 C6.89377927,75.0893002 6.00056711,73.7891654 6.418991,73.0642204 C6.83668972,72.3392549 8.40776172,72.4637023 9.92752502,73.3420326 C11.4480094,74.2203834 12.3412215,75.5205182 11.9227997,76.2454632" id="path225-41" fill="#231F20" fill-rule="nonzero"></path>
            <path d="M11.9227997,88.4756595 C11.5043779,89.2006045 9.934029,89.0761776 8.41354257,88.1978268 C6.89377927,87.3194965 6.00056711,86.0193617 6.418991,85.2944167 C6.83668972,84.5694512 8.40776172,84.6938986 9.92752502,85.5722289 C11.4480094,86.4505797 12.3412215,87.7507145 11.9227997,88.4756595" id="path229-9" fill="#231F20" fill-rule="nonzero"></path>
            <path d="M29.3468147,55.0753381 C28.9283888,55.8002831 27.3580522,55.6758563 25.8375556,54.7975054 C24.3177964,53.9191751 23.4245903,52.6190404 23.8429958,51.8940954 C24.2607047,51.1691299 25.8317788,51.2935772 27.351538,52.1719076 C28.8720347,53.0502584 29.7652407,54.3503931 29.3468147,55.0753381" id="path233-0" fill="#231F20" fill-rule="nonzero"></path>
            <path d="M29.3468147,67.3056165 C28.9283888,68.0305615 27.3580522,67.9061346 25.8375556,67.0277838 C24.3177964,66.1494535 23.4245903,64.8493187 23.8429958,64.1243737 C24.2607047,63.3994082 25.8317788,63.5238556 27.351538,64.4021859 C28.8720347,65.2805367 29.7652407,66.5806715 29.3468147,67.3056165" id="path237-2" fill="#231F20" fill-rule="nonzero"></path>
            <path d="M29.3468147,79.5358948 C28.9283888,80.2608398 27.3580522,80.1364129 25.8375556,79.2580621 C24.3177964,78.3797318 23.4245903,77.079597 23.8429958,76.354652 C24.2607047,75.6296865 25.8317788,75.7541339 27.351538,76.6324642 C28.8720347,77.510815 29.7652407,78.8109498 29.3468147,79.5358948" id="path241-1" fill="#231F20" fill-rule="nonzero"></path>
            <path d="M29.3468147,91.7660911 C28.9283888,92.4910361 27.3580522,92.3666092 25.8375556,91.4882584 C24.3177964,90.6099281 23.4245903,89.3097933 23.8429958,88.5848483 C24.2607047,87.8598828 25.8317788,87.9843302 27.351538,88.8626605 C28.8720347,89.7410113 29.7652407,91.0411461 29.3468147,91.7660911" id="path245-5" fill="#231F20" fill-rule="nonzero"></path>
            <path d="M29.3468147,61.1904875 C28.9283888,61.9154326 27.3580522,61.7910057 25.8375556,60.9126549 C24.3177964,60.0343246 23.4245903,58.7341898 23.8429958,58.0092448 C24.2607047,57.2842793 25.8317788,57.4087267 27.351538,58.287057 C28.8720347,59.1654078 29.7652407,60.4655425 29.3468147,61.1904875" id="path249-4" fill="#231F20" fill-rule="nonzero"></path>
            <path d="M29.3468147,73.4207454 C28.9283888,74.1456904 27.3580522,74.0212635 25.8375556,73.1429127 C24.3177964,72.2645824 23.4245903,70.9644476 23.8429958,70.2395026 C24.2607047,69.5145371 25.8317788,69.6389845 27.351538,70.5173148 C28.8720347,71.3956656 29.7652407,72.6958004 29.3468147,73.4207454" id="path253-90" fill="#231F20" fill-rule="nonzero"></path>
            <path d="M29.3468147,85.6510237 C28.9283888,86.3759687 27.3580522,86.2515418 25.8375556,85.373191 C24.3177964,84.4948607 23.4245903,83.1947259 23.8429958,82.4697809 C24.2607047,81.7448154 25.8317788,81.8692628 27.351538,82.7475931 C28.8720347,83.6259439 29.7652407,84.9260787 29.3468147,85.6510237" id="path257-2" fill="#231F20" fill-rule="nonzero"></path>
            <path d="M29.3468147,97.88122 C28.9283888,98.606165 27.3580522,98.4817381 25.8375556,97.6033873 C24.3177964,96.725057 23.4245903,95.4249222 23.8429958,94.6999772 C24.2607047,93.9750117 25.8317788,94.0994591 27.351538,94.9777894 C28.8720347,95.8561402 29.7652407,97.156275 29.3468147,97.88122" id="path261-0" fill="#231F20" fill-rule="nonzero"></path>
            <path d="M20.6649416,53.6283399 C20.2465198,54.3532849 18.6761709,54.228858 17.1556845,53.3505072 C15.6359212,52.4721769 14.742709,51.1720421 15.1611329,50.4470971 C15.5788316,49.7221316 17.1499036,49.846579 18.6696669,50.7249093 C20.1901513,51.6032601 21.0833635,52.9033949 20.6649416,53.6283399" id="path265-3" fill="#231F20" fill-rule="nonzero"></path>
            <path d="M20.6649416,65.8585977 C20.2465198,66.5835427 18.6761709,66.4591158 17.1556845,65.580765 C15.6359212,64.7024347 14.742709,63.4022999 15.1611329,62.6773549 C15.5788316,61.9523894 17.1499036,62.0768368 18.6696669,62.9551671 C20.1901513,63.8335179 21.0833635,65.1336527 20.6649416,65.8585977" id="path269-8" fill="#231F20" fill-rule="nonzero"></path>
            <path d="M20.6649416,78.088876 C20.2465198,78.813821 18.6761709,78.6893941 17.1556845,77.8110433 C15.6359212,76.932713 14.742709,75.6325782 15.1611329,74.9076332 C15.5788316,74.1826677 17.1499036,74.3071151 18.6696669,75.1854454 C20.1901513,76.0637962 21.0833635,77.363931 20.6649416,78.088876" id="path273-2" fill="#231F20" fill-rule="nonzero"></path>
            <path d="M20.6649416,90.3190723 C20.2465198,91.0440173 18.6761709,90.9195904 17.1556845,90.0412396 C15.6359212,89.1629093 14.742709,87.8627745 15.1611329,87.1378295 C15.5788316,86.412864 17.1499036,86.5373114 18.6696669,87.4156417 C20.1901513,88.2939925 21.0833635,89.5941273 20.6649416,90.3190723" id="path277-1" fill="#231F20" fill-rule="nonzero"></path>
            <path d="M20.6649416,59.7434688 C20.2465198,60.4684138 18.6761709,60.3439869 17.1556845,59.4656361 C15.6359212,58.5873058 14.742709,57.287171 15.1611329,56.562226 C15.5788316,55.8372605 17.1499036,55.9617079 18.6696669,56.8400382 C20.1901513,57.718389 21.0833635,59.0185238 20.6649416,59.7434688" id="path281-6" fill="#231F20" fill-rule="nonzero"></path>
            <path d="M20.6649416,71.9737471 C20.2465198,72.6986921 18.6761709,72.5742652 17.1556845,71.6959144 C15.6359212,70.8175841 14.742709,69.5174493 15.1611329,68.7925043 C15.5788316,68.0675388 17.1499036,68.1919862 18.6696669,69.0703165 C20.1901513,69.9486673 21.0833635,71.2488021 20.6649416,71.9737471" id="path285-8" fill="#231F20" fill-rule="nonzero"></path>
            <path d="M20.6649416,84.2040049 C20.2465198,84.9289499 18.6761709,84.804523 17.1556845,83.9261722 C15.6359212,83.0478419 14.742709,81.7477072 15.1611329,81.0227622 C15.5788316,80.2977966 17.1499036,80.422244 18.6696669,81.3005743 C20.1901513,82.1789251 21.0833635,83.4790599 20.6649416,84.2040049" id="path289-3" fill="#231F20" fill-rule="nonzero"></path>
            <path d="M20.6649416,96.4342012 C20.2465198,97.1591462 18.6761709,97.0347193 17.1556845,96.1563685 C15.6359212,95.2780382 14.742709,93.9779034 15.1611329,93.2529584 C15.5788316,92.5279929 17.1499036,92.6524403 18.6696669,93.5307706 C20.1901513,94.4091214 21.0833635,95.7092562 20.6649416,96.4342012" id="path293-2" fill="#231F20" fill-rule="nonzero"></path>
            <path d="M46.7697297,64.4809192 C46.3513038,65.2058642 44.7809672,65.0814373 43.2604705,64.2030865 C41.7407113,63.3247562 40.8475053,62.0246214 41.2659108,61.2996764 C41.6836197,60.5747109 43.2546938,60.6991583 44.774453,61.5774886 C46.2949497,62.4558394 47.1881557,63.7559741 46.7697297,64.4809192" id="path297-9" fill="#231F20" fill-rule="nonzero"></path>
            <path d="M46.7697297,76.711177 C46.3513038,77.436122 44.7809672,77.3116951 43.2604705,76.4333443 C41.7407113,75.555014 40.8475053,74.2548792 41.2659108,73.5299342 C41.6836197,72.8049687 43.2546938,72.9294161 44.774453,73.8077464 C46.2949497,74.6860972 47.1881557,75.986232 46.7697297,76.711177" id="path301-7" fill="#231F20" fill-rule="nonzero"></path>
            <path d="M46.7697297,88.9414553 C46.3513038,89.6664003 44.7809672,89.5419734 43.2604705,88.6636226 C41.7407113,87.7852923 40.8475053,86.4851575 41.2659108,85.7602125 C41.6836197,85.035247 43.2546938,85.1596944 44.774453,86.0380247 C46.2949497,86.9163755 47.1881557,88.2165103 46.7697297,88.9414553" id="path305-3" fill="#231F20" fill-rule="nonzero"></path>
            <path d="M46.7697297,101.171652 C46.3513038,101.896597 44.7809672,101.77217 43.2604705,100.893819 C41.7407113,100.015489 40.8475053,98.7153538 41.2659108,97.9904088 C41.6836197,97.2654433 43.2546938,97.3898907 44.774453,98.268221 C46.2949497,99.1465718 47.1881557,100.446707 46.7697297,101.171652" id="path309-4" fill="#231F20" fill-rule="nonzero"></path>
            <path d="M46.7697297,70.5960481 C46.3513038,71.3209931 44.7809672,71.1965662 43.2604705,70.3182154 C41.7407113,69.4398851 40.8475053,68.1397503 41.2659108,67.4148053 C41.6836197,66.6898398 43.2546938,66.8142872 44.774453,67.6926175 C46.2949497,68.5709683 47.1881557,69.8711031 46.7697297,70.5960481" id="path313-8" fill="#231F20" fill-rule="nonzero"></path>
            <path d="M46.7697297,82.8263059 C46.3513038,83.5512509 44.7809672,83.426824 43.2604705,82.5484732 C41.7407113,81.6701429 40.8475053,80.3700081 41.2659108,79.6450631 C41.6836197,78.9200976 43.2546938,79.044545 44.774453,79.9228753 C46.2949497,80.8012261 47.1881557,82.1013609 46.7697297,82.8263059" id="path317-6" fill="#231F20" fill-rule="nonzero"></path>
            <path d="M46.7697297,95.0565842 C46.3513038,95.7815292 44.7809672,95.6571023 43.2604705,94.7787515 C41.7407113,93.9004212 40.8475053,92.6002864 41.2659108,91.8753414 C41.6836197,91.1503759 43.2546938,91.2748233 44.774453,92.1531536 C46.2949497,93.0315044 47.1881557,94.3316392 46.7697297,95.0565842" id="path321-1" fill="#231F20" fill-rule="nonzero"></path>
            <path d="M46.7697297,107.28678 C46.3513038,108.011725 44.7809672,107.887299 43.2604705,107.008948 C41.7407113,106.130617 40.8475053,104.830483 41.2659108,104.105538 C41.6836197,103.380572 43.2546938,103.50502 44.774453,104.38335 C46.2949497,105.261701 47.1881557,106.561835 46.7697297,107.28678" id="path325-1" fill="#231F20" fill-rule="nonzero"></path>
            <path d="M38.087873,63.0339004 C37.6694471,63.7588454 36.0991105,63.6344185 34.5786138,62.7560677 C33.0588546,61.8777374 32.1656486,60.5776026 32.5840541,59.8526576 C33.001763,59.1276921 34.5728371,59.2521395 36.0925963,60.1304698 C37.6130929,61.0088206 38.506299,62.3089554 38.087873,63.0339004" id="path329-5" fill="#231F20" fill-rule="nonzero"></path>
            <path d="M38.087873,75.2641582 C37.6694471,75.9891032 36.0991105,75.8646763 34.5786138,74.9863255 C33.0588546,74.1079952 32.1656486,72.8078604 32.5840541,72.0829154 C33.001763,71.3579499 34.5728371,71.4823973 36.0925963,72.3607276 C37.6130929,73.2390784 38.506299,74.5392132 38.087873,75.2641582" id="path333-6" fill="#231F20" fill-rule="nonzero"></path>
            <path d="M38.087873,87.4944365 C37.6694471,88.2193815 36.0991105,88.0949546 34.5786138,87.2166038 C33.0588546,86.3382735 32.1656486,85.0381388 32.5840541,84.3131938 C33.001763,83.5882282 34.5728371,83.7126756 36.0925963,84.5910059 C37.6130929,85.4693568 38.506299,86.7694915 38.087873,87.4944365" id="path337-9" fill="#231F20" fill-rule="nonzero"></path>
            <path d="M38.087873,99.7246328 C37.6694471,100.449578 36.0991105,100.325151 34.5786138,99.4468001 C33.0588546,98.5684698 32.1656486,97.268335 32.5840541,96.54339 C33.001763,95.8184245 34.5728371,95.9428719 36.0925963,96.8212022 C37.6130929,97.699553 38.506299,98.9996878 38.087873,99.7246328" id="path341-8" fill="#231F20" fill-rule="nonzero"></path>
            <path d="M38.087873,69.1490293 C37.6694471,69.8739743 36.0991105,69.7495474 34.5786138,68.8711966 C33.0588546,67.9928663 32.1656486,66.6927315 32.5840541,65.9677865 C33.001763,65.242821 34.5728371,65.3672684 36.0925963,66.2455987 C37.6130929,67.1239495 38.506299,68.4240843 38.087873,69.1490293" id="path345-0" fill="#231F20" fill-rule="nonzero"></path>
            <path d="M38.087873,81.3793076 C37.6694471,82.1042526 36.0991105,81.9798257 34.5786138,81.1014749 C33.0588546,80.2231446 32.1656486,78.9230099 32.5840541,78.1980648 C33.001763,77.4730993 34.5728371,77.5975467 36.0925963,78.475877 C37.6130929,79.3542278 38.506299,80.6543626 38.087873,81.3793076" id="path349-2" fill="#231F20" fill-rule="nonzero"></path>
            <path d="M38.087873,93.6095654 C37.6694471,94.3345104 36.0991105,94.2100836 34.5786138,93.3317327 C33.0588546,92.4534024 32.1656486,91.1532677 32.5840541,90.4283227 C33.001763,89.7033572 34.5728371,89.8278045 36.0925963,90.7061348 C37.6130929,91.5844857 38.506299,92.8846204 38.087873,93.6095654" id="path353-2" fill="#231F20" fill-rule="nonzero"></path>
            <path d="M38.087873,105.839762 C37.6694471,106.564707 36.0991105,106.44028 34.5786138,105.561929 C33.0588546,104.683599 32.1656486,103.383464 32.5840541,102.658519 C33.001763,101.933553 34.5728371,102.058001 36.0925963,102.936331 C37.6130929,103.814682 38.506299,105.114817 38.087873,105.839762" id="path357-6" fill="#231F20" fill-rule="nonzero"></path>
            <path d="M94.7377174,45.6697776 C95.1561433,46.3947226 96.7264799,46.2702957 98.2469766,45.3919449 C99.7667358,44.5136146 100.659942,43.2134799 100.241536,42.4885349 C99.8238274,41.7635693 98.2527533,41.8880167 96.7329941,42.766347 C95.2124974,43.6446979 94.3192914,44.9448326 94.7377174,45.6697776" id="path361-7" fill="#231F20" fill-rule="nonzero"></path>
            <path d="M94.7377174,57.9000559 C95.1561433,58.6250009 96.7264799,58.5005741 98.2469766,57.6222233 C99.7667358,56.7438929 100.659942,55.4437582 100.241536,54.7188132 C99.8238274,53.9938477 98.2527533,54.1182951 96.7329941,54.9966254 C95.2124974,55.8749762 94.3192914,57.1751109 94.7377174,57.9000559" id="path365-6" fill="#231F20" fill-rule="nonzero"></path>
            <path d="M94.7377174,70.1303343 C95.1561433,70.8552793 96.7264799,70.7308524 98.2469766,69.8525016 C99.7667358,68.9741713 100.659942,67.6740365 100.241536,66.9490915 C99.8238274,66.224126 98.2527533,66.3485734 96.7329941,67.2269037 C95.2124974,68.1052545 94.3192914,69.4053893 94.7377174,70.1303343" id="path369-12" fill="#231F20" fill-rule="nonzero"></path>
            <path d="M94.7377174,82.36051 C95.1561433,83.0854551 96.7264799,82.9610282 98.2469766,82.0826774 C99.7667358,81.2043471 100.659942,79.9042123 100.241536,79.1792673 C99.8238274,78.4543018 98.2527533,78.5787492 96.7329941,79.4570795 C95.2124974,80.3354303 94.3192914,81.635565 94.7377174,82.36051" id="path373-1" fill="#231F20" fill-rule="nonzero"></path>
            <path d="M94.7377174,51.784927 C95.1561433,52.509872 96.7264799,52.3854452 98.2469766,51.5070943 C99.7667358,50.628764 100.659942,49.3286293 100.241536,48.6036843 C99.8238274,47.8787188 98.2527533,48.0031661 96.7329941,48.8814965 C95.2124974,49.7598473 94.3192914,51.059982 94.7377174,51.784927" id="path377-3" fill="#231F20" fill-rule="nonzero"></path>
            <path d="M94.7377174,64.0151849 C95.1561433,64.7401299 96.7264799,64.615703 98.2469766,63.7373522 C99.7667358,62.8590219 100.659942,61.5588871 100.241536,60.8339421 C99.8238274,60.1089766 98.2527533,60.233424 96.7329941,61.1117543 C95.2124974,61.9901051 94.3192914,63.2902398 94.7377174,64.0151849" id="path381-6" fill="#231F20" fill-rule="nonzero"></path>
            <path d="M94.7377174,76.2454632 C95.1561433,76.9704082 96.7264799,76.8459813 98.2469766,75.9676305 C99.7667358,75.0893002 100.659942,73.7891654 100.241536,73.0642204 C99.8238274,72.3392549 98.2527533,72.4637023 96.7329941,73.3420326 C95.2124974,74.2203834 94.3192914,75.5205182 94.7377174,76.2454632" id="path385-5" fill="#231F20" fill-rule="nonzero"></path>
            <path d="M94.7377174,88.4756595 C95.1561433,89.2006045 96.7264799,89.0761776 98.2469766,88.1978268 C99.7667358,87.3194965 100.659942,86.0193617 100.241536,85.2944167 C99.8238274,84.5694512 98.2527533,84.6938986 96.7329941,85.5722289 C95.2124974,86.4505797 94.3192914,87.7507145 94.7377174,88.4756595" id="path389-7" fill="#231F20" fill-rule="nonzero"></path>
            <path d="M77.3137167,55.0753381 C77.7321426,55.8002831 79.3024792,55.6758563 80.8229759,54.7975054 C82.3427351,53.9191751 83.2359411,52.6190404 82.8175356,51.8940954 C82.3998267,51.1691299 80.8287526,51.2935772 79.3089934,52.1719076 C77.7884968,53.0502584 76.8952907,54.3503931 77.3137167,55.0753381" id="path393-3" fill="#231F20" fill-rule="nonzero"></path>
            <path d="M77.3137167,67.3056165 C77.7321426,68.0305615 79.3024792,67.9061346 80.8229759,67.0277838 C82.3427351,66.1494535 83.2359411,64.8493187 82.8175356,64.1243737 C82.3998267,63.3994082 80.8287526,63.5238556 79.3089934,64.4021859 C77.7884968,65.2805367 76.8952907,66.5806715 77.3137167,67.3056165" id="path397-6" fill="#231F20" fill-rule="nonzero"></path>
            <path d="M77.3137167,79.5358948 C77.7321426,80.2608398 79.3024792,80.1364129 80.8229759,79.2580621 C82.3427351,78.3797318 83.2359411,77.079597 82.8175356,76.354652 C82.3998267,75.6296865 80.8287526,75.7541339 79.3089934,76.6324642 C77.7884968,77.510815 76.8952907,78.8109498 77.3137167,79.5358948" id="path401-3" fill="#231F20" fill-rule="nonzero"></path>
            <path d="M77.3137167,91.7660911 C77.7321426,92.4910361 79.3024792,92.3666092 80.8229759,91.4882584 C82.3427351,90.6099281 83.2359411,89.3097933 82.8175356,88.5848483 C82.3998267,87.8598828 80.8287526,87.9843302 79.3089934,88.8626605 C77.7884968,89.7410113 76.8952907,91.0411461 77.3137167,91.7660911" id="path405-2" fill="#231F20" fill-rule="nonzero"></path>
            <path d="M77.3137167,61.1904875 C77.7321426,61.9154326 79.3024792,61.7910057 80.8229759,60.9126549 C82.3427351,60.0343246 83.2359411,58.7341898 82.8175356,58.0092448 C82.3998267,57.2842793 80.8287526,57.4087267 79.3089934,58.287057 C77.7884968,59.1654078 76.8952907,60.4655425 77.3137167,61.1904875" id="path409-5" fill="#231F20" fill-rule="nonzero"></path>
            <path d="M77.3137167,73.4207454 C77.7321426,74.1456904 79.3024792,74.0212635 80.8229759,73.1429127 C82.3427351,72.2645824 83.2359411,70.9644476 82.8175356,70.2395026 C82.3998267,69.5145371 80.8287526,69.6389845 79.3089934,70.5173148 C77.7884968,71.3956656 76.8952907,72.6958004 77.3137167,73.4207454" id="path413-0" fill="#231F20" fill-rule="nonzero"></path>
            <path d="M77.3137167,85.6510237 C77.7321426,86.3759687 79.3024792,86.2515418 80.8229759,85.373191 C82.3427351,84.4948607 83.2359411,83.1947259 82.8175356,82.4697809 C82.3998267,81.7448154 80.8287526,81.8692628 79.3089934,82.7475931 C77.7884968,83.6259439 76.8952907,84.9260787 77.3137167,85.6510237" id="path417-3" fill="#231F20" fill-rule="nonzero"></path>
            <path d="M77.3137167,97.88122 C77.7321426,98.606165 79.3024792,98.4817381 80.8229759,97.6033873 C82.3427351,96.725057 83.2359411,95.4249222 82.8175356,94.6999772 C82.3998267,93.9750117 80.8287526,94.0994591 79.3089934,94.9777894 C77.7884968,95.8561402 76.8952907,97.156275 77.3137167,97.88122" id="path421-7" fill="#231F20" fill-rule="nonzero"></path>
            <path d="M85.9955734,53.6283399 C86.4132824,54.3532849 87.9843359,54.228858 89.5048326,53.3505072 C91.0245918,52.4721769 91.9177978,51.1720421 91.4993923,50.4470971 C91.0816834,49.7221316 89.5106093,49.846579 87.9908501,50.7249093 C86.4703535,51.6032601 85.5771475,52.9033949 85.9955734,53.6283399" id="path425-3" fill="#231F20" fill-rule="nonzero"></path>
            <path d="M85.9955734,65.8585977 C86.4132824,66.5835427 87.9843359,66.4591158 89.5048326,65.580765 C91.0245918,64.7024347 91.9177978,63.4022999 91.4993923,62.6773549 C91.0816834,61.9523894 89.5106093,62.0768368 87.9908501,62.9551671 C86.4703535,63.8335179 85.5771475,65.1336527 85.9955734,65.8585977" id="path429-5" fill="#231F20" fill-rule="nonzero"></path>
            <path d="M85.9955734,78.088876 C86.4132824,78.813821 87.9843359,78.6893941 89.5048326,77.8110433 C91.0245918,76.932713 91.9177978,75.6325782 91.4993923,74.9076332 C91.0816834,74.1826677 89.5106093,74.3071151 87.9908501,75.1854454 C86.4703535,76.0637962 85.5771475,77.363931 85.9955734,78.088876" id="path433-9" fill="#231F20" fill-rule="nonzero"></path>
            <path d="M85.9955734,90.3190723 C86.4132824,91.0440173 87.9843359,90.9195904 89.5048326,90.0412396 C91.0245918,89.1629093 91.9177978,87.8627745 91.4993923,87.1378295 C91.0816834,86.412864 89.5106093,86.5373114 87.9908501,87.4156417 C86.4703535,88.2939925 85.5771475,89.5941273 85.9955734,90.3190723" id="path437-1" fill="#231F20" fill-rule="nonzero"></path>
            <path d="M85.9955734,59.7434688 C86.4132824,60.4684138 87.9843359,60.3439869 89.5048326,59.4656361 C91.0245918,58.5873058 91.9177978,57.287171 91.4993923,56.562226 C91.0816834,55.8372605 89.5106093,55.9617079 87.9908501,56.8400382 C86.4703535,57.718389 85.5771475,59.0185238 85.9955734,59.7434688" id="path441-84" fill="#231F20" fill-rule="nonzero"></path>
            <path d="M85.9955734,71.9737471 C86.4132824,72.6986921 87.9843359,72.5742652 89.5048326,71.6959144 C91.0245918,70.8175841 91.9177978,69.5174493 91.4993923,68.7925043 C91.0816834,68.0675388 89.5106093,68.1919862 87.9908501,69.0703165 C86.4703535,69.9486673 85.5771475,71.2488021 85.9955734,71.9737471" id="path445-0" fill="#231F20" fill-rule="nonzero"></path>
            <path d="M85.9955734,84.2040049 C86.4132824,84.9289499 87.9843359,84.804523 89.5048326,83.9261722 C91.0245918,83.0478419 91.9177978,81.7477072 91.4993923,81.0227622 C91.0816834,80.2977966 89.5106093,80.422244 87.9908501,81.3005743 C86.4703535,82.1789251 85.5771475,83.4790599 85.9955734,84.2040049" id="path449-8" fill="#231F20" fill-rule="nonzero"></path>
            <path d="M85.9955734,96.4342012 C86.4132824,97.1591462 87.9843359,97.0347193 89.5048326,96.1563685 C91.0245918,95.2780382 91.9177978,93.9779034 91.4993923,93.2529584 C91.0816834,92.5279929 89.5106093,92.6524403 87.9908501,93.5307706 C86.4703535,94.4091214 85.5771475,95.7092562 85.9955734,96.4342012" id="path453-9" fill="#231F20" fill-rule="nonzero"></path>
            <path d="M59.8908631,64.4809192 C60.3092891,65.2058642 61.8796257,65.0814373 63.4001223,64.2030865 C64.9198815,63.3247562 65.8130875,62.0246214 65.3946821,61.2996764 C64.9769731,60.5747109 63.4058991,60.6991583 61.8861399,61.5774886 C60.3656432,62.4558394 59.4731542,63.7559741 59.8908631,64.4809192" id="path457-5" fill="#231F20" fill-rule="nonzero"></path>
            <path d="M59.8908631,76.711177 C60.3092891,77.436122 61.8796257,77.3116951 63.4001223,76.4333443 C64.9198815,75.555014 65.8130875,74.2548792 65.3946821,73.5299342 C64.9769731,72.8049687 63.4058991,72.9294161 61.8861399,73.8077464 C60.3656432,74.6860972 59.4731542,75.986232 59.8908631,76.711177" id="path461-8" fill="#231F20" fill-rule="nonzero"></path>
            <path d="M59.8908631,88.9414553 C60.3092891,89.6664003 61.8796257,89.5419734 63.4001223,88.6636226 C64.9198815,87.7852923 65.8130875,86.4851575 65.3946821,85.7602125 C64.9769731,85.035247 63.4058991,85.1596944 61.8861399,86.0380247 C60.3656432,86.9163755 59.4731542,88.2165103 59.8908631,88.9414553" id="path465-2" fill="#231F20" fill-rule="nonzero"></path>
            <path d="M59.8908631,101.171652 C60.3092891,101.896597 61.8796257,101.77217 63.4001223,100.893819 C64.9198815,100.015489 65.8130875,98.7153538 65.3946821,97.9904088 C64.9769731,97.2654433 63.4058991,97.3898907 61.8861399,98.268221 C60.3656432,99.1465718 59.4731542,100.446707 59.8908631,101.171652" id="path469-3" fill="#231F20" fill-rule="nonzero"></path>
            <path d="M59.8908631,70.5960481 C60.3092891,71.3209931 61.8796257,71.1965662 63.4001223,70.3182154 C64.9198815,69.4398851 65.8130875,68.1397503 65.3946821,67.4148053 C64.9769731,66.6898398 63.4058991,66.8142872 61.8861399,67.6926175 C60.3656432,68.5709683 59.4731542,69.8711031 59.8908631,70.5960481" id="path473-2" fill="#231F20" fill-rule="nonzero"></path>
            <path d="M59.8908631,82.8263059 C60.3092891,83.5512509 61.8796257,83.426824 63.4001223,82.5484732 C64.9198815,81.6701429 65.8130875,80.3700081 65.3946821,79.6450631 C64.9769731,78.9200976 63.4058991,79.044545 61.8861399,79.9228753 C60.3656432,80.8012261 59.4731542,82.1013609 59.8908631,82.8263059" id="path477-6" fill="#231F20" fill-rule="nonzero"></path>
            <path d="M59.8908631,95.0565842 C60.3092891,95.7815292 61.8796257,95.6571023 63.4001223,94.7787515 C64.9198815,93.9004212 65.8130875,92.6002864 65.3946821,91.8753414 C64.9769731,91.1503759 63.4058991,91.2748233 61.8861399,92.1531536 C60.3656432,93.0315044 59.4731542,94.3316392 59.8908631,95.0565842" id="path481-6" fill="#231F20" fill-rule="nonzero"></path>
            <path d="M59.8908631,107.28678 C60.3092891,108.011725 61.8796257,107.887299 63.4001223,107.008948 C64.9198815,106.130617 65.8130875,104.830483 65.3946821,104.105538 C64.9769731,103.380572 63.4058991,103.50502 61.8861399,104.38335 C60.3656432,105.261701 59.4731542,106.561835 59.8908631,107.28678" id="path485-6" fill="#231F20" fill-rule="nonzero"></path>
            <path d="M68.5727199,63.0339004 C68.9911458,63.7588454 70.5614824,63.6344185 72.081979,62.7560677 C73.6017383,61.8777374 74.4949443,60.5776026 74.0765388,59.8526576 C73.6588299,59.1276921 72.0877558,59.2521395 70.5679966,60.1304698 C69.0474999,61.0088206 68.1542939,62.3089554 68.5727199,63.0339004" id="path489-3" fill="#231F20" fill-rule="nonzero"></path>
            <path d="M68.5727199,75.2641582 C68.9911458,75.9891032 70.5614824,75.8646763 72.081979,74.9863255 C73.6017383,74.1079952 74.4949443,72.8078604 74.0765388,72.0829154 C73.6588299,71.3579499 72.0877558,71.4823973 70.5679966,72.3607276 C69.0474999,73.2390784 68.1542939,74.5392132 68.5727199,75.2641582" id="path493-4" fill="#231F20" fill-rule="nonzero"></path>
            <path d="M68.5727199,87.4944365 C68.9911458,88.2193815 70.5614824,88.0949546 72.081979,87.2166038 C73.6017383,86.3382735 74.4949443,85.0381388 74.0765388,84.3131938 C73.6588299,83.5882282 72.0877558,83.7126756 70.5679966,84.5910059 C69.0474999,85.4693568 68.1542939,86.7694915 68.5727199,87.4944365" id="path497-4" fill="#231F20" fill-rule="nonzero"></path>
            <path d="M68.5727199,99.7246328 C68.9911458,100.449578 70.5614824,100.325151 72.081979,99.4468001 C73.6017383,98.5684698 74.4949443,97.268335 74.0765388,96.54339 C73.6588299,95.8184245 72.0877558,95.9428719 70.5679966,96.8212022 C69.0474999,97.699553 68.1542939,98.9996878 68.5727199,99.7246328" id="path501-2" fill="#231F20" fill-rule="nonzero"></path>
            <path d="M68.5727199,69.1490293 C68.9911458,69.8739743 70.5614824,69.7495474 72.081979,68.8711966 C73.6017383,67.9928663 74.4949443,66.6927315 74.0765388,65.9677865 C73.6588299,65.242821 72.0877558,65.3672684 70.5679966,66.2455987 C69.0474999,67.1239495 68.1542939,68.4240843 68.5727199,69.1490293" id="path505-9" fill="#231F20" fill-rule="nonzero"></path>
            <path d="M68.5727199,81.3793076 C68.9911458,82.1042526 70.5614824,81.9798257 72.081979,81.1014749 C73.6017383,80.2231446 74.4949443,78.9230099 74.0765388,78.1980648 C73.6588299,77.4730993 72.0877558,77.5975467 70.5679966,78.475877 C69.0474999,79.3542278 68.1542939,80.6543626 68.5727199,81.3793076" id="path509-2" fill="#231F20" fill-rule="nonzero"></path>
            <path d="M68.5727199,93.6095654 C68.9911458,94.3345104 70.5614824,94.2100836 72.081979,93.3317327 C73.6017383,92.4534024 74.4949443,91.1532677 74.0765388,90.4283227 C73.6588299,89.7033572 72.0877558,89.8278045 70.5679966,90.7061348 C69.0474999,91.5844857 68.1542939,92.8846204 68.5727199,93.6095654" id="path513-8" fill="#231F20" fill-rule="nonzero"></path>
            <path d="M68.5727199,105.839762 C68.9911458,106.564707 70.5614824,106.44028 72.081979,105.561929 C73.6017383,104.683599 74.4949443,103.383464 74.0765388,102.658519 C73.6588299,101.933553 72.0877558,102.058001 70.5679966,102.936331 C69.0474999,103.814682 68.1542939,105.114817 68.5727199,105.839762" id="path517-9" fill="#231F20" fill-rule="nonzero"></path>
            <path d="M51.6767806,29.7345172 C51.6767806,29.7345172 49.5796117,27.0749137 40.2131678,24.9760268 C40.2131678,24.9760268 37.2769756,24.1360377 40.2131678,22.5964197 C43.1486226,21.0567996 48.0417847,19.6568177 51.6767806,19.9368141 C51.6767806,19.9368141 54.6129729,20.0771763 54.3332916,22.1760631 C54.3332916,22.1760631 54.9721358,26.3752847 53.7435909,29.7345172 L51.6767806,29.7345172 Z" id="path521-2" fill="#231F20" fill-rule="nonzero"></path>
            <path d="M54.9448703,29.7345172 C54.9448703,29.7345172 60.8324137,29.8857286 66.5999971,27.2391481 C66.5999971,27.2391481 70.4452916,24.7242465 71.6470832,27.7861178 C71.6470832,27.7861178 73.689332,34.0958034 68.0417085,34.0958034 C68.0417085,34.0958034 59.5106622,33.8556003 55.4254476,31.2090198 L54.9448703,29.7345172 Z" id="path525-5" fill="#231F20" fill-rule="nonzero"></path>
            <path d="M53.2609241,32.0086353 C53.2609241,32.0086353 51.703575,34.7991937 52.2058254,38.8037929 C52.2058254,38.8037929 52.5830561,41.2304226 49.6931394,40.624121 C49.6931394,40.624121 43.912548,40.624121 40.7703999,37.3481009 C40.7703999,37.3481009 39.0114377,36.1340601 41.3991245,34.9207432 C41.3991245,34.9207432 48.26081,30.5211096 51.6782965,30.5211096 L53.2609241,32.0086353 Z" id="path529-6" fill="#231F20" fill-rule="nonzero"></path>
        </g>
    </g>
</svg>