<?xml version="1.0" encoding="UTF-8"?>
<svg width="130px" height="130px" viewBox="0 0 130 130" version="1.1" xmlns="http://www.w3.org/2000/svg" xmlns:xlink="http://www.w3.org/1999/xlink">
    <title>floor-vent</title>
    <g id="floor-vent" stroke="none" stroke-width="1" fill="none" fill-rule="evenodd">
        <rect id="Rectangle" x="0" y="0" width="130" height="130"></rect>
        <g id="FloorVent" transform="translate(5.000000, 18.000000)" stroke="#231F20" stroke-linecap="round" stroke-linejoin="round">
            <polygon id="path883" stroke-width="3.18" points="120 94.7368421 0 94.7368421 0 0 120 0"></polygon>
            <polygon id="path893" stroke-width="2.18614183" points="107.000527 80.8348963 22.2184895 80.8348963 22.2184895 13.9019272 107.000527 13.9019272"></polygon>
            <path d="M15.7946701,9.94398199 C15.7946701,12.3655105 13.8283861,14.3281101 11.403784,14.3281101 C8.97852298,14.3281101 7.01223901,12.3655105 7.01223901,9.94398199 C7.01223901,7.52245349 8.97852298,5.55985391 11.403784,5.55985391 C13.8283861,5.55985391 15.7946701,7.52245349 15.7946701,9.94398199 Z" id="path887" stroke-width="2.18614183"></path>
            <path d="M15.7946701,83.622446 C15.7946701,86.0439745 13.8283861,88.0065741 11.403784,88.0065741 C8.97852298,88.0065741 7.01223901,86.0439745 7.01223901,83.622446 C7.01223901,81.2009175 8.97852298,79.2383179 11.403784,79.2383179 C13.8283861,79.2383179 15.7946701,81.2009175 15.7946701,83.622446 Z" id="path891" stroke-width="2.18614183"></path>
            <polyline id="path897" stroke-width="1.4574334" points="29.4624561 13.9017222 22.0174417 21.5831719 22.0174417 73.3998339 29.4624561 80.8347099"></polyline>
            <polyline id="path901" stroke-width="1.4574334" points="40.1924041 13.9017222 32.7473898 21.5831719 32.7473898 73.3998339 40.1924041 80.8347099"></polyline>
            <polyline id="path905" stroke-width="1.4574334" points="50.9223522 13.9017222 43.4773378 21.5831719 43.4773378 73.3998339 50.9223522 80.8347099"></polyline>
            <polyline id="path909" stroke-width="1.4574334" points="61.6523655 13.9017222 54.2073512 21.5831719 54.2073512 73.3998339 61.6523655 80.8347099"></polyline>
            <polyline id="path913" stroke-width="1.4574334" points="72.3822949 13.9017222 64.9372806 21.5831719 64.9372806 73.3998339 72.3822949 80.8347099"></polyline>
            <polyline id="path917" stroke-width="1.4574334" points="83.1122429 13.9017222 75.6672286 21.5831719 75.6672286 73.3998339 83.1122429 80.8347099"></polyline>
            <polyline id="path921" stroke-width="1.4574334" points="93.8421928 13.9017222 86.3971785 21.5831719 86.3971785 73.3998339 93.8421928 80.8347099"></polyline>
            <polyline id="path925" stroke-width="1.4574334" points="104.572141 13.9017222 97.1271265 21.5831719 97.1271265 73.3998339 104.572141 80.8347099"></polyline>
            <line x1="11.4034517" y1="21.3646849" x2="11.4034517" y2="49.5696175" id="path929" stroke-width="2.91486266"></line>
        </g>
    </g>
</svg>