<?xml version="1.0" encoding="UTF-8"?>
<svg width="130px" height="130px" viewBox="0 0 130 130" version="1.1" xmlns="http://www.w3.org/2000/svg" xmlns:xlink="http://www.w3.org/1999/xlink">
    <title>whole-home-heating</title>
    <g id="whole-home-heating" stroke="none" stroke-width="1" fill="none" fill-rule="evenodd">
        <rect id="Rectangle" x="0" y="0" width="130" height="130"></rect>
        <g id="wholehomeheating" transform="translate(5.000000, 21.000000)" stroke="#231F20" stroke-linecap="round" stroke-linejoin="round">
            <polygon id="path933" stroke-width="3.18" points="111.142792 87.75 8.8572819 87.75 8.8572819 28.1066214 59.9997138 0.000342304255 111.142792 28.1066214"></polygon>
            <line x1="59.999999" y1="0" x2="120" y2="33.163311" id="path937" stroke-width="4.87"></line>
            <line x1="59.999999" y1="7.60676122e-05" x2="0" y2="33.1633871" id="path941" stroke-width="4.87"></line>
            <polyline id="path945" stroke-width="4.87" points="50.928258 63.2097516 59.9998279 72.1337186 68.6259779 63.2097516"></polyline>
            <line x1="59.7769658" y1="31.5305387" x2="59.7769658" y2="72.1331861" id="path949" stroke-width="4.87"></line>
            <polyline id="path953" stroke-width="4.87" points="29.58121 56.9174387 29.686556 69.6425803 42.0954853 69.4325957"></polyline>
            <path d="M43.8593282,31.5305387 C43.8593282,31.5305387 46.1005561,54.6065997 31.2236577,69.6167364" id="path957" stroke-width="4.87"></path>
            <polyline id="path961" stroke-width="4.87" points="89.999914 56.9174387 89.8945679 69.6425803 77.4856386 69.4325957"></polyline>
            <path d="M75.7217767,31.5305387 C75.7217767,31.5305387 73.4805487,54.6065997 88.3574472,69.6167364" id="path965" stroke-width="4.87"></path>
        </g>
    </g>
</svg>