<svg xmlns="http://www.w3.org/2000/svg" viewBox="0 0 773.76 270.04"><defs><style>.cls-1{fill:#fff}.cls-2,.cls-3{fill:#015a75}.cls-3{fill-rule:evenodd}</style></defs><g id="Layer_2" data-name="Layer 2"><g id="Layer_1-2" data-name="Layer 1"><path d="M35.46 2.77A32.69 32.69 0 0 0 2.77 35.46v199.12a32.69 32.69 0 0 0 32.69 32.69h211.07V2.77H35.46" class="cls-1"/><path d="M249.3 270H35.46A35.5 35.5 0 0 1 0 234.58V35.46A35.5 35.5 0 0 1 35.46 0H249.3v270M35.46 5.54A30 30 0 0 0 5.54 35.46v199.12a30 30 0 0 0 29.92 29.92h208.3V5.54Z" class="cls-2"/><path d="M715.31 234.58V35.46a32.69 32.69 0 0 0-32.69-32.69H246.53v264.5h436.09a32.69 32.69 0 0 0 32.69-32.69" class="cls-2"/><path d="M682.62 270H243.76V0h438.86a35.5 35.5 0 0 1 35.46 35.46v199.12A35.5 35.5 0 0 1 682.62 270m-433.32-5.5h433.32a30 30 0 0 0 29.92-29.92V35.46a30 30 0 0 0-29.92-29.92H249.3ZM767.45 233.91 756.75 248v.22l17-2.25v7.66l-17-2v.23l10.82 13.52-7.1 4.06-6.76-15.78h-.23l-7.33 15.89-6.42-4.06 10.7-13.75v-.22l-16.68 2.14V246l16.56 2.14v-.23l-10.59-13.75 6.87-3.94 7 15.66h.23l6.87-15.77Z" class="cls-2"/><path d="M106.94 89.26 95.53 105c-5.72 7.87-3.95 21.83 3.86 27.47l21.15 15.27c3.63 2.62 3.92 5.22 2.19 8l3.07 2.28 10.71-14.83c6.62-9.16 6-21.64-3.77-28.78l-21.32-15.58c-2.55-1.86-2.82-4.46-1.4-7.37l-3.07-2.19M125.24 19.81l-17.76 24.57c-8.33 11.52-5.3 31.19 6.08 39.54l29.2 21.43c5.92 4.34 6.69 15.41 2.38 21.08l2.48 1.86 20.14-28.34c9-12.72 8.52-31.52-5.68-41.83l-31.24-22.69c-4.37-3.18-6.55-8.57-2.91-13.72l-2.69-1.9M78.44 173.84H102l4.19 14.27h38.46l4.19-14.27h23.54l-3.09-10.5H81.52l-3.09 10.5M89.47 221.57c4.14-2.42 6.68-6 6.68-10.85 0-9.75-8-13.72-16.7-13.72H55.11v51.75h24.11c10.3 0 21.21-4.5 19.45-16.35-1-6.78-3.74-8.41-9.21-10.82m-23.34-14.69h12.64c7.9 0 8.18 11 .5 11H66.12ZM80.22 239h-14.1v-11.84h14.1c10.37 0 9.78 11.84 0 11.84ZM137.78 221.57c4.14-2.42 6.68-6 6.68-10.85 0-9.75-8-13.72-16.7-13.72h-24.33v51.75h24.11c10.29 0 21.21-4.5 19.45-16.35-1-6.78-3.74-8.41-9.2-10.82m-23.35-14.68h12.64c7.9 0 8.19 11 .5 11h-13.15Zm14.09 32.1h-14.1v-11.84h14.1c10.37 0 9.74 11.84 0 11.84ZM195.3 232.39c-1-6.78-3.74-8.41-9.21-10.82 4.14-2.42 6.68-6 6.68-10.85 0-9.75-8-13.72-16.7-13.72h-24.33v51.75h24.11c10.29 0 21.21-4.5 19.45-16.35m-32.55-25.5h12.64c7.9 0 8.19 11 .5 11h-13.14Zm14.1 32.1h-14.1v-11.84h14.1c10.37 0 9.74 11.84 0 11.84Z" class="cls-3"/><path d="m312.79 124.08-2.37-6.52h-16.5l-2.42 6.52h-9.35L297 85.6h10.27l14.83 38.48Zm-10.61-30.29-6 16.56h12ZM321.33 104.86c0-11.83 8.94-19.9 20.48-19.9a17.61 17.61 0 0 1 16.1 9.4l-7 3.46a10.43 10.43 0 0 0-9.06-5.6c-7 0-12.06 5.37-12.06 12.63s5.08 12.63 12.06 12.63a10.32 10.32 0 0 0 9.06-5.6l7 3.4c-2.77 4.79-7.62 9.46-16.1 9.46-11.54.03-20.48-8.05-20.48-19.88ZM359.87 104.86c0-11.83 8.94-19.9 20.48-19.9a17.61 17.61 0 0 1 16.1 9.4l-7 3.46a10.43 10.43 0 0 0-9.06-5.6c-7 0-12.06 5.37-12.06 12.63s5.08 12.63 12.06 12.63a10.32 10.32 0 0 0 9.06-5.6l7 3.4c-2.77 4.79-7.62 9.46-16.1 9.46-11.53.03-20.48-8.05-20.48-19.88ZM423.11 124.08l-7.56-13.67h-6v13.67h-8.19V85.6h18c8 0 12.92 5.25 12.92 12.4 0 6.81-4.27 10.44-8.42 11.42l8.65 14.65Zm.8-26.08c0-3.23-2.48-5.19-5.77-5.19h-8.6v10.38h8.6c3.29 0 5.77-1.96 5.77-5.19ZM438.45 124.08V85.6h27.23v7.21h-19v8.13h18.63v7.21h-18.66v8.71h19v7.21ZM472.09 124.08V85.6h15.17c12.06 0 20.42 7.67 20.42 19.27s-8.37 19.21-20.42 19.21Zm27.23-19.21c0-6.81-4.15-12.06-12.06-12.06h-7v24.06h7c7.62-.01 12.06-5.49 12.06-12.01ZM513.51 124.08V85.6h8.19v38.48ZM538.21 124.08V92.81H527V85.6h30.69v7.21h-11.23v31.27ZM562.9 124.08V85.6h27.23v7.21h-19v8.13h18.63v7.21h-18.67v8.71h19v7.21ZM596.54 124.08V85.6h15.17c12.06 0 20.42 7.67 20.42 19.27s-8.37 19.21-20.42 19.21Zm27.23-19.21c0-6.81-4.15-12.06-12.06-12.06h-7v24.06h7c7.61-.01 12.06-5.49 12.06-12.01ZM286.25 190.17v-38.49h20.25c7.33 0 11.08 4.67 11.08 9.81 0 4.85-3 8.08-6.63 8.83 4.1.63 7.38 4.62 7.38 9.46 0 5.77-3.87 10.38-11.19 10.38Zm23-27.23a4.14 4.14 0 0 0-4.5-4.21h-10.3v8.37h10.27c2.77-.01 4.5-1.74 4.5-4.17Zm.75 15.69c0-2.42-1.73-4.5-5-4.5h-10.55v8.94H305c3.12 0 5-1.67 5-4.44ZM324.51 174.82v-23.14h8.31v22.85c0 5.37 3.12 9.06 9.06 9.06s9-3.69 9-9.06v-22.85h8.37v23.08c0 9.58-5.65 16.1-17.37 16.1s-17.37-6.58-17.37-16.04ZM364.2 184.74l4.44-6.23a16.87 16.87 0 0 0 12.23 5.19c4.5 0 6.69-2.08 6.69-4.27 0-2.83-3.58-3.63-7.79-4.67-6.29-1.44-14.37-3.17-14.37-11.94 0-6.4 5.54-11.71 14.6-11.71 6.12 0 11.19 1.85 15 5.37l-4.56 6a16.53 16.53 0 0 0-11.19-4.21c-3.52 0-5.48 1.56-5.48 3.87 0 2.48 3.52 3.29 7.67 4.27 6.35 1.5 14.42 3.4 14.42 12.12 0 7-5 12.35-15.4 12.35-7.38-.02-12.68-2.5-16.26-6.14ZM401.41 190.17v-38.49h8.19v38.48ZM443.76 190.17l-18.35-25.1v25.1h-8.19v-38.49h8.42l17.83 24.17v-24.17h8.19v38.48ZM459.28 190.17v-38.49h27.23v7.21h-19V167h18.63v7.21h-18.67V183h19v7.21ZM490.32 184.74l4.44-6.23A16.87 16.87 0 0 0 507 183.7c4.5 0 6.69-2.08 6.69-4.27 0-2.83-3.58-3.63-7.79-4.67-6.29-1.44-14.37-3.17-14.37-11.94 0-6.4 5.54-11.71 14.6-11.71 6.12 0 11.19 1.85 15 5.37l-4.56 6a16.53 16.53 0 0 0-11.19-4.21c-3.52 0-5.48 1.56-5.48 3.87 0 2.48 3.52 3.29 7.67 4.27 6.35 1.5 14.42 3.4 14.42 12.12 0 7-5 12.35-15.4 12.35-7.39-.02-12.69-2.5-16.27-6.14ZM524.36 184.74l4.44-6.23a16.87 16.87 0 0 0 12.2 5.19c4.5 0 6.69-2.08 6.69-4.27 0-2.83-3.58-3.63-7.79-4.67-6.29-1.44-14.37-3.17-14.37-11.94 0-6.4 5.54-11.71 14.6-11.71 6.12 0 11.19 1.85 15 5.37l-4.56 6a16.53 16.53 0 0 0-11.19-4.21c-3.52 0-5.48 1.56-5.48 3.87 0 2.48 3.52 3.29 7.67 4.27C548 167.9 556 169.8 556 178.51c0 7-5 12.35-15.4 12.35-7.36 0-12.66-2.48-16.24-6.12Z" class="cls-1"/></g></g></svg>