<svg width="236" height="32" viewBox="0 0 236 32" fill="none" xmlns="http://www.w3.org/2000/svg">
<mask id="mask0_135_228" style="mask-type:luminance" maskUnits="userSpaceOnUse" x="0" y="0" width="32" height="32">
<path d="M31.8678 0.0344238H0V31.9022H31.8678V0.0344238Z" fill="white"/>
</mask>
<g mask="url(#mask0_135_228)">
<path d="M7.96858 29.7649C15.5885 34.1639 25.3316 31.5538 29.7307 23.9339C34.1297 16.314 31.5194 6.57079 23.8995 2.17175C16.2798 -2.22779 6.53653 0.382991 2.13748 8.00285C-2.26159 15.6227 0.34872 25.366 7.96858 29.7649Z" fill="#37F826"/>
<path d="M27.9709 8.60423L26.1438 7.54906C25.9716 7.44955 25.7726 7.40485 25.5751 7.42263C24.7784 7.49426 22.6605 7.5505 23.1022 6.06556C23.1445 5.92375 23.0916 5.77089 22.9696 5.68771C22.7089 5.50986 22.4398 5.34064 22.1625 5.18008C18.1671 2.87359 13.4249 3.03174 9.69692 5.18247C8.60473 5.81259 9.19938 6.54484 9.69692 6.4761C13.0466 6.01269 16.7294 6.84528 16.2001 9.48058C16.1231 9.86275 15.9147 10.2865 15.6622 10.7377L6.28334 25.3981C6.17229 25.5717 6.19825 25.8 6.34679 25.9428C7.13565 26.6999 8.02786 27.3753 9.01767 27.9464C9.47916 28.2127 9.94978 28.4492 10.4271 28.6565C10.6338 28.7463 10.8747 28.6598 10.98 28.4607L20.1756 11.0621C20.253 10.9155 20.3502 10.7795 20.4698 10.6646C21.514 9.66278 22.4942 11.4751 22.8238 12.1875C22.907 12.3668 23.0436 12.5158 23.2152 12.6149L25.0448 13.6715C25.2289 13.7777 25.464 13.7147 25.5702 13.5306L28.1118 9.12869C28.218 8.94458 28.155 8.70951 27.9709 8.60327V8.60423Z" fill="#261230"/>
</g>
<path d="M56.3286 13.3549V5.33325H61.2021V26.5224H56.3286V17.8046H47.3686V26.5224H42.4951V5.33325H47.3686V13.3549H56.3286Z" fill="#261230"/>
<path d="M71.1149 26.8253C66.3322 26.8253 62.9722 23.7982 62.9722 18.9853C62.9722 14.0815 66.3322 11.0544 71.1149 11.0544C75.8976 11.0544 79.2576 14.0815 79.2576 18.9853C79.2576 23.7982 75.8976 26.8253 71.1149 26.8253ZM71.1149 22.6782C73.7181 22.6782 74.6262 21.5582 74.6262 18.9853C74.6262 16.3517 73.7181 15.2015 71.1149 15.2015C68.5116 15.2015 67.6035 16.3517 67.6035 18.9853C67.6035 21.5582 68.5116 22.6782 71.1149 22.6782Z" fill="#261230"/>
<path d="M101.501 11.0544C105.073 11.0544 106.707 13.1431 106.707 17.5626V26.5226H102.076V18.0469C102.076 16.0793 100.986 15.262 99.3516 15.262C97.2932 15.262 96.264 16.382 96.264 19.1669V26.5226H91.6327V18.4101C91.6327 16.0793 90.6943 15.262 88.8781 15.262C86.85 15.262 85.7905 16.382 85.7905 19.1669V26.5226H81.1592V11.3571H85.7905V14.8382C86.6078 12.3863 88.3938 11.0544 91.0273 11.0544C93.8122 11.0544 95.4165 12.3258 96.0219 14.9896C96.8695 12.4469 98.7462 11.0544 101.501 11.0544Z" fill="#261230"/>
<path d="M116.158 11.0544C121.456 11.0544 123.908 14.7474 123.665 20.3171H113.071C113.343 22.4361 114.312 23.1323 116.431 23.1323C118.065 23.1323 118.792 22.6782 119.428 21.1344L123.363 22.4966C122.333 25.3723 119.972 26.8253 116.31 26.8253C111.527 26.8253 108.349 23.7074 108.349 19.0761C108.349 14.2328 111.497 11.0544 116.158 11.0544ZM116.279 14.6263C114.221 14.6263 113.313 15.5042 113.071 17.5323H119.155C119.125 15.3831 118.186 14.6263 116.279 14.6263Z" fill="#261230"/>
<path d="M133.871 26.8252C128.665 26.8252 125.093 24.7063 124.548 20.0447L129.391 18.955C129.664 21.9215 130.662 22.8598 133.901 22.8598C136.505 22.8598 137.564 22.1939 137.564 20.5896C137.564 19.2879 136.656 18.8036 134.598 18.4706L130.572 17.8047C127.363 17.2901 125.032 15.3225 125.032 11.4177C125.032 7.57334 128.029 5.03064 133.266 5.03064C138.169 5.03064 141.62 6.84686 142.074 11.4479L137.534 12.5679C137.292 9.87388 136.444 8.99604 133.357 8.99604C130.874 8.99604 129.906 9.66199 129.906 11.2663C129.906 12.8101 131.268 13.2642 133.296 13.5669L136.686 14.0815C140.561 14.6566 142.438 16.9571 142.438 19.9539C142.438 24.0706 139.38 26.8252 133.871 26.8252Z" fill="#261230"/>
<path d="M154.49 11.3571V15.4133H150.312V22.4663H154.308V26.5225H150.706C147.679 26.5225 145.651 24.4944 145.651 21.4371V15.4133H142.805V11.3571H145.651V6.93762H150.312V11.3571H154.49Z" fill="#261230"/>
<path d="M163.059 11.0544C167.69 11.0544 170.324 13.1431 170.324 16.8058V26.5226H165.813V23.1928C164.996 25.7053 163.059 26.8253 160.425 26.8253C157.307 26.8253 155.4 25.1907 155.4 22.7085C155.4 19.3788 158.064 17.9561 163.604 17.9561H165.813V16.8663C165.813 15.4436 164.905 14.6869 162.968 14.6869C160.728 14.6869 159.82 15.4436 159.82 17.3507L155.703 16.5334C155.643 13.7788 157.55 11.0544 163.059 11.0544ZM162.06 23.5258C164.027 23.5258 165.662 22.6782 165.813 20.4988H163.725C161.031 20.4988 159.971 20.8923 159.971 22.0426C159.971 22.9809 160.788 23.5258 162.06 23.5258Z" fill="#261230"/>
<path d="M182.11 11.115C182.746 11.115 183.533 11.1755 184.017 11.4177V15.6555C183.382 15.4436 182.807 15.3831 181.959 15.3831C179.144 15.3831 177.509 16.8361 177.509 20.1658V26.5226H172.878V11.3572H177.509V15.8372C177.994 13.1128 179.174 11.115 182.11 11.115Z" fill="#261230"/>
<path d="M191.413 26.8253C187.024 26.8253 184.27 24.9788 184.118 21.982L188.598 21.2253C188.78 22.8296 189.688 23.4955 191.534 23.4955C193.078 23.4955 193.835 23.102 193.835 22.1334C193.835 21.2858 193.29 20.9226 191.595 20.7107L189.143 20.408C185.934 20.0144 184.572 18.5312 184.572 15.8674C184.572 12.7496 187.085 11.0544 191.201 11.0544C195.379 11.0544 197.982 12.6588 198.133 15.5647L193.684 16.2912C193.532 14.7474 192.775 14.2328 191.201 14.2328C189.779 14.2328 189.082 14.6263 189.082 15.5344C189.082 16.4728 189.537 16.8058 191.111 16.9571L193.532 17.2296C196.892 17.6231 198.345 19.0155 198.345 21.6188C198.345 24.888 195.833 26.8253 191.413 26.8253Z" fill="#261230"/>
</svg>
